<!--
  -  package: Joomill Elements for YOOtheme Pro
  -  copyright: Copyright (c) 2022. Jeroen Moolenschot | Joomill
  -  license: GNU General Public License version 2 or later
  -  link: https://www.joomill-extensions.com
  -->

<svg width="30" height="30" xmlns="http://www.w3.org/2000/svg">
 <g>
  <path fill="#777777" d="m15.16667,0.66667c-7.64076,0 -13.83333,6.41641 -13.83333,14.33333s6.19258,14.33333 13.83333,14.33333s13.83333,-6.41641 13.83333,-14.33333s-6.19258,-14.33333 -13.83333,-14.33333zm0,25.97917c-6.19798,0 -11.23958,-5.22439 -11.23958,-11.64583s5.0416,-11.64583 11.23958,-11.64583s11.23958,5.22439 11.23958,11.64583s-5.0416,11.64583 -11.23958,11.64583zm-0.04863,-16.125c0,0 0,0 0,0c1.13801,0 2.21117,0.46539 3.01686,1.30904c0.50659,0.52317 1.32551,0.5319 1.83562,0.00875c0.50827,-0.52317 0.51167,-1.37342 0.00844,-1.90197c-1.29688,-1.35607 -3.02334,-2.10297 -4.86058,-2.10297c0,0 0.00169,0 0,0c-1.83562,0 -3.5637,0.7469 -4.86058,2.10297c-2.67156,2.79276 -2.67156,7.33464 0,10.12852c1.29688,1.35607 3.02496,2.10297 4.86058,2.10297c0.00169,0 0,0 0,0c1.83724,0 3.5637,-0.7469 4.86058,-2.10297c0.50319,-0.52843 0.49984,-1.37846 -0.00844,-1.90197c-0.51,-0.52137 -1.32876,-0.51617 -1.83562,0.00875c-0.80568,0.8432 -1.87885,1.30904 -3.01686,1.30904c0,0 0.00169,0 0,0c-1.13963,0 -2.21279,-0.46539 -3.0201,-1.30904c-1.67189,-1.74799 -1.67189,-4.59283 0,-6.34362c0.81001,-0.84278 1.87993,-1.30749 3.0201,-1.30749z"/>
 </g>
</svg>