<!--
  -  package: Joomill Elements for YOOtheme Pro
  -  copyright: Copyright (c) 2022. Jeroen Moolenschot | Joomill
  -  license: GNU General Public License version 2 or later
  -  link: https://www.joomill-extensions.com
  -->

<svg width="20" height="20" xmlns="http://www.w3.org/2000/svg">
 <g>
  <path fill="#777777" d="m10.16667,0.66667c-4.87904,0 -8.83333,4.17812 -8.83333,9.33333s3.9543,9.33333 8.83333,9.33333s8.83333,-4.17812 8.83333,-9.33333s-3.9543,-9.33333 -8.83333,-9.33333zm0,16.91666c-3.95775,0 -7.17708,-3.40193 -7.17708,-7.58333s3.21934,-7.58333 7.17708,-7.58333s7.17708,3.40193 7.17708,7.58333s-3.21934,7.58333 -7.17708,7.58333zm-0.03105,-10.5c0,0 0,0 0,0c0.72668,0 1.41195,0.30304 1.92643,0.8524c0.32349,0.34067 0.84641,0.34635 1.17214,0.00569c0.32456,-0.34067 0.32673,-0.89432 0.00539,-1.23849c-0.82813,-0.88302 -1.93057,-1.36937 -3.10374,-1.36937c0,0 0.00108,0 0,0c-1.17214,0 -2.27562,0.48635 -3.10374,1.36937c-1.70594,1.81854 -1.70594,4.77604 0,6.59531c0.82813,0.88302 1.9316,1.36937 3.10374,1.36937c0.00108,0 0,0 0,0c1.17318,0 2.27562,-0.48635 3.10374,-1.36937c0.32131,-0.34409 0.31917,-0.8976 -0.00539,-1.23849c-0.32566,-0.3395 -0.84848,-0.33611 -1.17214,0.00569c-0.51447,0.54906 -1.19975,0.8524 -1.92643,0.8524c0,0 0.00108,0 0,0c-0.72771,0 -1.41299,-0.30304 -1.9285,-0.8524c-1.06759,-1.13823 -1.06759,-2.99068 0,-4.13073c0.51723,-0.54879 1.20044,-0.85139 1.9285,-0.85139z"/>
 </g>
</svg>